v -1.0 -1.0 1.0
v 1.0 -1.0 1.0
v 1.0 1.0 1.0
v -1.0 1.0 1.0

v -1.0 1.0 -1.0
v 1.0 1.0 -1.0
v 1.0 -1.0 -1.0
v -1.0 -1.0 -1.0

vt 0.0 0.0
vt 1.0 0.0
vt 1.0 1.0
vt 0.0 1.0

vn -0.57735026919 -0.57735026919 0.57735026919
vn 0.57735026919 -0.57735026919 0.57735026919
vn 0.57735026919 0.57735026919 0.57735026919
vn -0.57735026919 0.57735026919 0.57735026919

vn -0.57735026919 0.57735026919 -0.57735026919
vn 0.57735026919 0.57735026919 -0.57735026919
vn 0.57735026919 -0.57735026919 -0.57735026919
vn -0.57735026919 -0.57735026919 -0.57735026919

f 1/1/1 2/2/2 3/3/3
f 3/3/3 4/4/4 1/1/1
f 5/3/5 6/4/6 7/1/7 
f 7/1/7 8/2/8 5/3/5 
f 1/4/1 8/1/8 7/2/7
f 7/2/7 2/3/2 1/4/1
f 1/2/1 4/3/4 5/4/5
f 5/4/5 8/1/8 1/2/1
f 3/4/3 2/1/2 6/3/6
f 7/2/7 6/3/6 2/1/2
f 4/1/4 3/2/3 6/3/6 
f 5/4/5 4/1/4 6/3/6

#indexer:
#1  2  3
#3  4  1
#5  6  7
#7  8  5
#9 10 11
#... -> index for 1/1/1 and different index for 1/4/1